<svg width="64" height="64" viewBox="0 0 64 64" fill="none" xmlns="http://www.w3.org/2000/svg">
<g clip-path="url(#clip0_590_2)">
<path d="M63.9999 32.196C63.9999 14.412 49.6719 -0.0039978 31.9999 -0.0039978C14.3199 2.19746e-06 -0.00805664 14.412 -0.00805664 32.2C-0.00805664 48.268 11.6959 61.588 26.9919 64.004V41.504H18.8719V32.2H26.9999V25.1C26.9999 17.032 31.7799 12.576 39.0879 12.576C42.5919 12.576 46.2519 13.204 46.2519 13.204V21.124H42.2159C38.2439 21.124 37.0039 23.608 37.0039 26.156V32.196H45.8759L44.4599 41.5H36.9999V64C52.2959 61.584 63.9999 48.264 63.9999 32.196Z" fill="white"/>
</g>
<defs>
<clipPath id="clip0_590_2">
<rect width="64" height="64" fill="white"/>
</clipPath>
</defs>
</svg>
