<?xml version="1.0" encoding="UTF-8" ?>
<svg version="1.1" width="64" height="64" xmlns="http://www.w3.org/2000/svg" shape-rendering="crispEdges">
<rect x="0" y="0" width="2" height="2" fill="#000000" />
<rect x="2" y="0" width="2" height="2" fill="#000000" />
<rect x="4" y="0" width="2" height="2" fill="#000000" />
<rect x="6" y="0" width="2" height="2" fill="#000000" />
<rect x="8" y="0" width="2" height="2" fill="#000000" />
<rect x="10" y="0" width="2" height="2" fill="#000000" />
<rect x="12" y="0" width="2" height="2" fill="#000000" />
<rect x="14" y="0" width="2" height="2" fill="#000000" />
<rect x="16" y="0" width="2" height="2" fill="#000000" />
<rect x="18" y="0" width="2" height="2" fill="#000000" />
<rect x="20" y="0" width="2" height="2" fill="#000000" />
<rect x="22" y="0" width="2" height="2" fill="#000000" />
<rect x="24" y="0" width="2" height="2" fill="#000000" />
<rect x="26" y="0" width="2" height="2" fill="#000000" />
<rect x="28" y="0" width="2" height="2" fill="#000000" />
<rect x="30" y="0" width="2" height="2" fill="#000000" />
<rect x="32" y="0" width="2" height="2" fill="#000000" />
<rect x="34" y="0" width="2" height="2" fill="#000000" />
<rect x="36" y="0" width="2" height="2" fill="#000000" />
<rect x="38" y="0" width="2" height="2" fill="#000000" />
<rect x="40" y="0" width="2" height="2" fill="#000000" />
<rect x="42" y="0" width="2" height="2" fill="#000000" />
<rect x="44" y="0" width="2" height="2" fill="#000000" />
<rect x="46" y="0" width="2" height="2" fill="#000000" />
<rect x="48" y="0" width="2" height="2" fill="#000000" />
<rect x="50" y="0" width="2" height="2" fill="#000000" />
<rect x="52" y="0" width="2" height="2" fill="#000000" />
<rect x="54" y="0" width="2" height="2" fill="#000000" />
<rect x="56" y="0" width="2" height="2" fill="#000000" />
<rect x="58" y="0" width="2" height="2" fill="#000000" />
<rect x="60" y="0" width="2" height="2" fill="#000000" />
<rect x="62" y="0" width="2" height="2" fill="#000000" />
<rect x="0" y="2" width="2" height="2" fill="#000000" />
<rect x="2" y="2" width="2" height="2" fill="#000000" />
<rect x="4" y="2" width="2" height="2" fill="#000000" />
<rect x="6" y="2" width="2" height="2" fill="#000000" />
<rect x="8" y="2" width="2" height="2" fill="#000000" />
<rect x="10" y="2" width="2" height="2" fill="#000000" />
<rect x="12" y="2" width="2" height="2" fill="#000000" />
<rect x="14" y="2" width="2" height="2" fill="#000000" />
<rect x="16" y="2" width="2" height="2" fill="#000000" />
<rect x="18" y="2" width="2" height="2" fill="#000000" />
<rect x="20" y="2" width="2" height="2" fill="#000000" />
<rect x="22" y="2" width="2" height="2" fill="#000000" />
<rect x="24" y="2" width="2" height="2" fill="#000000" />
<rect x="26" y="2" width="2" height="2" fill="#000000" />
<rect x="28" y="2" width="2" height="2" fill="#000000" />
<rect x="30" y="2" width="2" height="2" fill="#000000" />
<rect x="32" y="2" width="2" height="2" fill="#000000" />
<rect x="34" y="2" width="2" height="2" fill="#000000" />
<rect x="36" y="2" width="2" height="2" fill="#000000" />
<rect x="38" y="2" width="2" height="2" fill="#000000" />
<rect x="40" y="2" width="2" height="2" fill="#000000" />
<rect x="42" y="2" width="2" height="2" fill="#000000" />
<rect x="44" y="2" width="2" height="2" fill="#000000" />
<rect x="46" y="2" width="2" height="2" fill="#000000" />
<rect x="48" y="2" width="2" height="2" fill="#000000" />
<rect x="50" y="2" width="2" height="2" fill="#000000" />
<rect x="52" y="2" width="2" height="2" fill="#000000" />
<rect x="54" y="2" width="2" height="2" fill="#000000" />
<rect x="56" y="2" width="2" height="2" fill="#000000" />
<rect x="58" y="2" width="2" height="2" fill="#000000" />
<rect x="60" y="2" width="2" height="2" fill="#000000" />
<rect x="62" y="2" width="2" height="2" fill="#000000" />
<rect x="0" y="4" width="2" height="2" fill="#000000" />
<rect x="2" y="4" width="2" height="2" fill="#000000" />
<rect x="60" y="4" width="2" height="2" fill="#000000" />
<rect x="62" y="4" width="2" height="2" fill="#000000" />
<rect x="0" y="6" width="2" height="2" fill="#000000" />
<rect x="2" y="6" width="2" height="2" fill="#000000" />
<rect x="60" y="6" width="2" height="2" fill="#000000" />
<rect x="62" y="6" width="2" height="2" fill="#000000" />
<rect x="0" y="8" width="2" height="2" fill="#000000" />
<rect x="2" y="8" width="2" height="2" fill="#000000" />
<rect x="60" y="8" width="2" height="2" fill="#000000" />
<rect x="62" y="8" width="2" height="2" fill="#000000" />
<rect x="0" y="10" width="2" height="2" fill="#000000" />
<rect x="2" y="10" width="2" height="2" fill="#000000" />
<rect x="60" y="10" width="2" height="2" fill="#000000" />
<rect x="62" y="10" width="2" height="2" fill="#000000" />
<rect x="0" y="12" width="2" height="2" fill="#000000" />
<rect x="2" y="12" width="2" height="2" fill="#000000" />
<rect x="32" y="12" width="2" height="2" fill="#000000" />
<rect x="34" y="12" width="2" height="2" fill="#000000" />
<rect x="60" y="12" width="2" height="2" fill="#000000" />
<rect x="62" y="12" width="2" height="2" fill="#000000" />
<rect x="0" y="14" width="2" height="2" fill="#000000" />
<rect x="2" y="14" width="2" height="2" fill="#000000" />
<rect x="32" y="14" width="2" height="2" fill="#000000" />
<rect x="34" y="14" width="2" height="2" fill="#000000" />
<rect x="60" y="14" width="2" height="2" fill="#000000" />
<rect x="62" y="14" width="2" height="2" fill="#000000" />
<rect x="0" y="16" width="2" height="2" fill="#000000" />
<rect x="2" y="16" width="2" height="2" fill="#000000" />
<rect x="28" y="16" width="2" height="2" fill="#000000" />
<rect x="30" y="16" width="2" height="2" fill="#000000" />
<rect x="36" y="16" width="2" height="2" fill="#000000" />
<rect x="38" y="16" width="2" height="2" fill="#000000" />
<rect x="60" y="16" width="2" height="2" fill="#000000" />
<rect x="62" y="16" width="2" height="2" fill="#000000" />
<rect x="0" y="18" width="2" height="2" fill="#000000" />
<rect x="2" y="18" width="2" height="2" fill="#000000" />
<rect x="28" y="18" width="2" height="2" fill="#000000" />
<rect x="30" y="18" width="2" height="2" fill="#000000" />
<rect x="36" y="18" width="2" height="2" fill="#000000" />
<rect x="38" y="18" width="2" height="2" fill="#000000" />
<rect x="60" y="18" width="2" height="2" fill="#000000" />
<rect x="62" y="18" width="2" height="2" fill="#000000" />
<rect x="0" y="20" width="2" height="2" fill="#000000" />
<rect x="2" y="20" width="2" height="2" fill="#000000" />
<rect x="24" y="20" width="2" height="2" fill="#000000" />
<rect x="26" y="20" width="2" height="2" fill="#000000" />
<rect x="40" y="20" width="2" height="2" fill="#000000" />
<rect x="42" y="20" width="2" height="2" fill="#000000" />
<rect x="60" y="20" width="2" height="2" fill="#000000" />
<rect x="62" y="20" width="2" height="2" fill="#000000" />
<rect x="0" y="22" width="2" height="2" fill="#000000" />
<rect x="2" y="22" width="2" height="2" fill="#000000" />
<rect x="24" y="22" width="2" height="2" fill="#000000" />
<rect x="26" y="22" width="2" height="2" fill="#000000" />
<rect x="40" y="22" width="2" height="2" fill="#000000" />
<rect x="42" y="22" width="2" height="2" fill="#000000" />
<rect x="60" y="22" width="2" height="2" fill="#000000" />
<rect x="62" y="22" width="2" height="2" fill="#000000" />
<rect x="0" y="24" width="2" height="2" fill="#000000" />
<rect x="2" y="24" width="2" height="2" fill="#000000" />
<rect x="20" y="24" width="2" height="2" fill="#000000" />
<rect x="22" y="24" width="2" height="2" fill="#000000" />
<rect x="44" y="24" width="2" height="2" fill="#000000" />
<rect x="46" y="24" width="2" height="2" fill="#000000" />
<rect x="60" y="24" width="2" height="2" fill="#000000" />
<rect x="62" y="24" width="2" height="2" fill="#000000" />
<rect x="0" y="26" width="2" height="2" fill="#000000" />
<rect x="2" y="26" width="2" height="2" fill="#000000" />
<rect x="20" y="26" width="2" height="2" fill="#000000" />
<rect x="22" y="26" width="2" height="2" fill="#000000" />
<rect x="44" y="26" width="2" height="2" fill="#000000" />
<rect x="46" y="26" width="2" height="2" fill="#000000" />
<rect x="60" y="26" width="2" height="2" fill="#000000" />
<rect x="62" y="26" width="2" height="2" fill="#000000" />
<rect x="0" y="28" width="2" height="2" fill="#000000" />
<rect x="2" y="28" width="2" height="2" fill="#000000" />
<rect x="16" y="28" width="2" height="2" fill="#000000" />
<rect x="18" y="28" width="2" height="2" fill="#000000" />
<rect x="20" y="28" width="2" height="2" fill="#000000" />
<rect x="22" y="28" width="2" height="2" fill="#000000" />
<rect x="24" y="28" width="2" height="2" fill="#000000" />
<rect x="26" y="28" width="2" height="2" fill="#000000" />
<rect x="40" y="28" width="2" height="2" fill="#000000" />
<rect x="42" y="28" width="2" height="2" fill="#000000" />
<rect x="44" y="28" width="2" height="2" fill="#000000" />
<rect x="46" y="28" width="2" height="2" fill="#000000" />
<rect x="48" y="28" width="2" height="2" fill="#000000" />
<rect x="50" y="28" width="2" height="2" fill="#000000" />
<rect x="60" y="28" width="2" height="2" fill="#000000" />
<rect x="62" y="28" width="2" height="2" fill="#000000" />
<rect x="0" y="30" width="2" height="2" fill="#000000" />
<rect x="2" y="30" width="2" height="2" fill="#000000" />
<rect x="16" y="30" width="2" height="2" fill="#000000" />
<rect x="18" y="30" width="2" height="2" fill="#000000" />
<rect x="20" y="30" width="2" height="2" fill="#000000" />
<rect x="22" y="30" width="2" height="2" fill="#000000" />
<rect x="24" y="30" width="2" height="2" fill="#000000" />
<rect x="26" y="30" width="2" height="2" fill="#000000" />
<rect x="40" y="30" width="2" height="2" fill="#000000" />
<rect x="42" y="30" width="2" height="2" fill="#000000" />
<rect x="44" y="30" width="2" height="2" fill="#000000" />
<rect x="46" y="30" width="2" height="2" fill="#000000" />
<rect x="48" y="30" width="2" height="2" fill="#000000" />
<rect x="50" y="30" width="2" height="2" fill="#000000" />
<rect x="60" y="30" width="2" height="2" fill="#000000" />
<rect x="62" y="30" width="2" height="2" fill="#000000" />
<rect x="0" y="32" width="2" height="2" fill="#000000" />
<rect x="2" y="32" width="2" height="2" fill="#000000" />
<rect x="24" y="32" width="2" height="2" fill="#000000" />
<rect x="26" y="32" width="2" height="2" fill="#000000" />
<rect x="40" y="32" width="2" height="2" fill="#000000" />
<rect x="42" y="32" width="2" height="2" fill="#000000" />
<rect x="60" y="32" width="2" height="2" fill="#000000" />
<rect x="62" y="32" width="2" height="2" fill="#000000" />
<rect x="0" y="34" width="2" height="2" fill="#000000" />
<rect x="2" y="34" width="2" height="2" fill="#000000" />
<rect x="24" y="34" width="2" height="2" fill="#000000" />
<rect x="26" y="34" width="2" height="2" fill="#000000" />
<rect x="40" y="34" width="2" height="2" fill="#000000" />
<rect x="42" y="34" width="2" height="2" fill="#000000" />
<rect x="60" y="34" width="2" height="2" fill="#000000" />
<rect x="62" y="34" width="2" height="2" fill="#000000" />
<rect x="0" y="36" width="2" height="2" fill="#000000" />
<rect x="2" y="36" width="2" height="2" fill="#000000" />
<rect x="24" y="36" width="2" height="2" fill="#000000" />
<rect x="26" y="36" width="2" height="2" fill="#000000" />
<rect x="40" y="36" width="2" height="2" fill="#000000" />
<rect x="42" y="36" width="2" height="2" fill="#000000" />
<rect x="60" y="36" width="2" height="2" fill="#000000" />
<rect x="62" y="36" width="2" height="2" fill="#000000" />
<rect x="0" y="38" width="2" height="2" fill="#000000" />
<rect x="2" y="38" width="2" height="2" fill="#000000" />
<rect x="24" y="38" width="2" height="2" fill="#000000" />
<rect x="26" y="38" width="2" height="2" fill="#000000" />
<rect x="40" y="38" width="2" height="2" fill="#000000" />
<rect x="42" y="38" width="2" height="2" fill="#000000" />
<rect x="60" y="38" width="2" height="2" fill="#000000" />
<rect x="62" y="38" width="2" height="2" fill="#000000" />
<rect x="0" y="40" width="2" height="2" fill="#000000" />
<rect x="2" y="40" width="2" height="2" fill="#000000" />
<rect x="24" y="40" width="2" height="2" fill="#000000" />
<rect x="26" y="40" width="2" height="2" fill="#000000" />
<rect x="40" y="40" width="2" height="2" fill="#000000" />
<rect x="42" y="40" width="2" height="2" fill="#000000" />
<rect x="60" y="40" width="2" height="2" fill="#000000" />
<rect x="62" y="40" width="2" height="2" fill="#000000" />
<rect x="0" y="42" width="2" height="2" fill="#000000" />
<rect x="2" y="42" width="2" height="2" fill="#000000" />
<rect x="24" y="42" width="2" height="2" fill="#000000" />
<rect x="26" y="42" width="2" height="2" fill="#000000" />
<rect x="40" y="42" width="2" height="2" fill="#000000" />
<rect x="42" y="42" width="2" height="2" fill="#000000" />
<rect x="60" y="42" width="2" height="2" fill="#000000" />
<rect x="62" y="42" width="2" height="2" fill="#000000" />
<rect x="0" y="44" width="2" height="2" fill="#000000" />
<rect x="2" y="44" width="2" height="2" fill="#000000" />
<rect x="24" y="44" width="2" height="2" fill="#000000" />
<rect x="26" y="44" width="2" height="2" fill="#000000" />
<rect x="28" y="44" width="2" height="2" fill="#000000" />
<rect x="30" y="44" width="2" height="2" fill="#000000" />
<rect x="32" y="44" width="2" height="2" fill="#000000" />
<rect x="34" y="44" width="2" height="2" fill="#000000" />
<rect x="36" y="44" width="2" height="2" fill="#000000" />
<rect x="38" y="44" width="2" height="2" fill="#000000" />
<rect x="40" y="44" width="2" height="2" fill="#000000" />
<rect x="42" y="44" width="2" height="2" fill="#000000" />
<rect x="60" y="44" width="2" height="2" fill="#000000" />
<rect x="62" y="44" width="2" height="2" fill="#000000" />
<rect x="0" y="46" width="2" height="2" fill="#000000" />
<rect x="2" y="46" width="2" height="2" fill="#000000" />
<rect x="24" y="46" width="2" height="2" fill="#000000" />
<rect x="26" y="46" width="2" height="2" fill="#000000" />
<rect x="28" y="46" width="2" height="2" fill="#000000" />
<rect x="30" y="46" width="2" height="2" fill="#000000" />
<rect x="32" y="46" width="2" height="2" fill="#000000" />
<rect x="34" y="46" width="2" height="2" fill="#000000" />
<rect x="36" y="46" width="2" height="2" fill="#000000" />
<rect x="38" y="46" width="2" height="2" fill="#000000" />
<rect x="40" y="46" width="2" height="2" fill="#000000" />
<rect x="42" y="46" width="2" height="2" fill="#000000" />
<rect x="60" y="46" width="2" height="2" fill="#000000" />
<rect x="62" y="46" width="2" height="2" fill="#000000" />
<rect x="0" y="48" width="2" height="2" fill="#000000" />
<rect x="2" y="48" width="2" height="2" fill="#000000" />
<rect x="60" y="48" width="2" height="2" fill="#000000" />
<rect x="62" y="48" width="2" height="2" fill="#000000" />
<rect x="0" y="50" width="2" height="2" fill="#000000" />
<rect x="2" y="50" width="2" height="2" fill="#000000" />
<rect x="60" y="50" width="2" height="2" fill="#000000" />
<rect x="62" y="50" width="2" height="2" fill="#000000" />
<rect x="0" y="52" width="2" height="2" fill="#000000" />
<rect x="2" y="52" width="2" height="2" fill="#000000" />
<rect x="60" y="52" width="2" height="2" fill="#000000" />
<rect x="62" y="52" width="2" height="2" fill="#000000" />
<rect x="0" y="54" width="2" height="2" fill="#000000" />
<rect x="2" y="54" width="2" height="2" fill="#000000" />
<rect x="60" y="54" width="2" height="2" fill="#000000" />
<rect x="62" y="54" width="2" height="2" fill="#000000" />
<rect x="0" y="56" width="2" height="2" fill="#000000" />
<rect x="2" y="56" width="2" height="2" fill="#000000" />
<rect x="60" y="56" width="2" height="2" fill="#000000" />
<rect x="62" y="56" width="2" height="2" fill="#000000" />
<rect x="0" y="58" width="2" height="2" fill="#000000" />
<rect x="2" y="58" width="2" height="2" fill="#000000" />
<rect x="60" y="58" width="2" height="2" fill="#000000" />
<rect x="62" y="58" width="2" height="2" fill="#000000" />
<rect x="0" y="60" width="2" height="2" fill="#000000" />
<rect x="2" y="60" width="2" height="2" fill="#000000" />
<rect x="4" y="60" width="2" height="2" fill="#000000" />
<rect x="6" y="60" width="2" height="2" fill="#000000" />
<rect x="8" y="60" width="2" height="2" fill="#000000" />
<rect x="10" y="60" width="2" height="2" fill="#000000" />
<rect x="12" y="60" width="2" height="2" fill="#000000" />
<rect x="14" y="60" width="2" height="2" fill="#000000" />
<rect x="16" y="60" width="2" height="2" fill="#000000" />
<rect x="18" y="60" width="2" height="2" fill="#000000" />
<rect x="20" y="60" width="2" height="2" fill="#000000" />
<rect x="22" y="60" width="2" height="2" fill="#000000" />
<rect x="24" y="60" width="2" height="2" fill="#000000" />
<rect x="26" y="60" width="2" height="2" fill="#000000" />
<rect x="28" y="60" width="2" height="2" fill="#000000" />
<rect x="30" y="60" width="2" height="2" fill="#000000" />
<rect x="32" y="60" width="2" height="2" fill="#000000" />
<rect x="34" y="60" width="2" height="2" fill="#000000" />
<rect x="36" y="60" width="2" height="2" fill="#000000" />
<rect x="38" y="60" width="2" height="2" fill="#000000" />
<rect x="40" y="60" width="2" height="2" fill="#000000" />
<rect x="42" y="60" width="2" height="2" fill="#000000" />
<rect x="44" y="60" width="2" height="2" fill="#000000" />
<rect x="46" y="60" width="2" height="2" fill="#000000" />
<rect x="48" y="60" width="2" height="2" fill="#000000" />
<rect x="50" y="60" width="2" height="2" fill="#000000" />
<rect x="52" y="60" width="2" height="2" fill="#000000" />
<rect x="54" y="60" width="2" height="2" fill="#000000" />
<rect x="56" y="60" width="2" height="2" fill="#000000" />
<rect x="58" y="60" width="2" height="2" fill="#000000" />
<rect x="60" y="60" width="2" height="2" fill="#000000" />
<rect x="62" y="60" width="2" height="2" fill="#000000" />
<rect x="0" y="62" width="2" height="2" fill="#000000" />
<rect x="2" y="62" width="2" height="2" fill="#000000" />
<rect x="4" y="62" width="2" height="2" fill="#000000" />
<rect x="6" y="62" width="2" height="2" fill="#000000" />
<rect x="8" y="62" width="2" height="2" fill="#000000" />
<rect x="10" y="62" width="2" height="2" fill="#000000" />
<rect x="12" y="62" width="2" height="2" fill="#000000" />
<rect x="14" y="62" width="2" height="2" fill="#000000" />
<rect x="16" y="62" width="2" height="2" fill="#000000" />
<rect x="18" y="62" width="2" height="2" fill="#000000" />
<rect x="20" y="62" width="2" height="2" fill="#000000" />
<rect x="22" y="62" width="2" height="2" fill="#000000" />
<rect x="24" y="62" width="2" height="2" fill="#000000" />
<rect x="26" y="62" width="2" height="2" fill="#000000" />
<rect x="28" y="62" width="2" height="2" fill="#000000" />
<rect x="30" y="62" width="2" height="2" fill="#000000" />
<rect x="32" y="62" width="2" height="2" fill="#000000" />
<rect x="34" y="62" width="2" height="2" fill="#000000" />
<rect x="36" y="62" width="2" height="2" fill="#000000" />
<rect x="38" y="62" width="2" height="2" fill="#000000" />
<rect x="40" y="62" width="2" height="2" fill="#000000" />
<rect x="42" y="62" width="2" height="2" fill="#000000" />
<rect x="44" y="62" width="2" height="2" fill="#000000" />
<rect x="46" y="62" width="2" height="2" fill="#000000" />
<rect x="48" y="62" width="2" height="2" fill="#000000" />
<rect x="50" y="62" width="2" height="2" fill="#000000" />
<rect x="52" y="62" width="2" height="2" fill="#000000" />
<rect x="54" y="62" width="2" height="2" fill="#000000" />
<rect x="56" y="62" width="2" height="2" fill="#000000" />
<rect x="58" y="62" width="2" height="2" fill="#000000" />
<rect x="60" y="62" width="2" height="2" fill="#000000" />
<rect x="62" y="62" width="2" height="2" fill="#000000" />
</svg>